<svg width="720" height="135" xmlns="http://www.w3.org/2000/svg">
  <defs>
    <style>
      .cell { width: 12px; height: 12px; rx: 2px; stroke: #444; stroke-width: 1px; }
      .no-contrib { fill: #4a4a4a; }
      .low-contrib { fill: #9be9a8; }
      .med-contrib { fill: #40c463; }
      .high-contrib { fill: #30a14e; }
      .fence { stroke: #8B4513; stroke-width: 3px; fill: none; }
    </style>
    <g id="sheep">
      <ellipse cx="8" cy="6" rx="6" ry="4" fill="#f0f0f0" stroke="#d0d0d0" stroke-width="1" />
      <ellipse cx="8" cy="3.5" rx="3" ry="2.5" fill="#111" />
      <path d="M4,3 Q3,1 4,0 M12,3 Q13,1 12,0" stroke="#111" stroke-width="1.5" fill="none" />
      <path d="M5,4 C4,2 6,1 7,3" stroke="#e0c090" stroke-width="1.5" fill="none" />
      <path d="M11,4 C12,2 10,1 9,3" stroke="#e0c090" stroke-width="1.5" fill="none" />
    </g>
  </defs>

  <rect width="100%" height="100%" fill="#222" />
  <rect x="2" y="2" width="716" height="131" class="fence" rx="5" />

  <g transform="translate(15, 15)">
    <g id="grid">
      <g transform="translate(0, 0)">
        <rect class="cell no-contrib" />
        <rect y="14" class="cell no-contrib" />
        <rect y="28" class="cell no-contrib" />
        <rect y="42" class="cell no-contrib" />
        <rect y="56" class="cell no-contrib" />
        <rect y="70" class="cell no-contrib" />
        <rect y="84" class="cell no-contrib" />
      </g>
      <g transform="translate(14, 0)">
        <rect class="cell no-contrib" />
        <rect y="14" class="cell no-contrib" />
        <rect y="28" class="cell no-contrib" />
        <rect y="42" class="cell no-contrib" />
        <rect y="56" class="cell no-contrib" />
        <rect y="70" class="cell no-contrib" />
        <rect y="84" class="cell no-contrib" />
      </g>
      <g transform="translate(28, 0)">
        <rect class="cell no-contrib" />
        <rect y="14" class="cell no-contrib" />
        <rect y="28" class="cell no-contrib" />
        <rect y="42" class="cell no-contrib" />
        <rect y="56" class="cell no-contrib" />
        <rect y="70" class="cell no-contrib" />
        <rect y="84" class="cell no-contrib" />
      </g>
      <g transform="translate(560, 0)">
        <rect class="cell no-contrib" />
        <rect y="14" class="cell med-contrib" /><use href="#sheep" x="-2" y="12" />
        <rect y="28" class="cell high-contrib" /><use href="#sheep" x="-2" y="26" />
        <rect y="42" class="cell low-contrib" /><use href="#sheep" x="-2" y="40" />
        <rect y="56" class="cell med-contrib" /><use href="#sheep" x="-2" y="54" />
        <rect y="70" class="cell low-contrib" /><use href="#sheep" x="-2" y="68" />
        <rect y="84" class="cell no-contrib" />
      </g>
      <g transform="translate(574, 0)">
        <rect class="cell no-contrib" />
        <rect y="14" class="cell no-contrib" />
        <rect y="28" class="cell no-contrib" />
        <rect y="42" class="cell no-contrib" />
        <rect y="56" class="cell no-contrib" />
        <rect y="70" class="cell no-contrib" />
        <rect y="84" class="cell no-contrib" />
      </g>
      <g transform="translate(658, 0)">
        <rect class="cell med-contrib" /><use href="#sheep" x="-2" y="-2" />
        <rect y="14" class="cell low-contrib" /><use href="#sheep" x="-2" y="12" />
        <rect y="28" class="cell no-contrib" />
        <rect y="42" class="cell no-contrib" />
        <rect y="56" class="cell med-contrib" /><use href="#sheep" x="-2" y="54" />
        <rect y="70" class="cell no-contrib" />
        <rect y="84" class="cell no-contrib" />
      </g>
    </g>
  </g>
</svg>
