<?xml version="1.0" encoding="UTF-8"?>
<svg width="24" height="22" viewBox="0.5 0 15 12.5" xmlns="http://www.w3.org/2000/svg">
  <g id="sheep">
    <!-- 몸통: 세로 길이를 약 1.25배로 키우되, 중앙 정렬 유지 -->
    <g transform="translate(0,7.5) scale(1,1.25) translate(0,-7.5)">
      <path
        d="M8 10.5
           C6.4 10.9 5.0 10.4 4.3 9.3
           C3.1 9.1 2.7 7.9 3.5 7.1
           C2.7 6.1 3.5 5.0 4.6 4.7
           C4.6 3.6 5.6 2.9 6.6 3.2
           C7.1 2.3 8.0 2.1 8.0 2.1
           C8.0 2.1 8.9 2.3 9.4 3.2
           C10.4 2.9 11.4 3.6 11.4 4.7
           C12.5 5.0 13.3 6.1 12.5 7.1
           C13.3 7.9 12.9 9.1 11.7 9.3
           C11.0 10.4 9.6 10.9 8.0 10.5
           Z"
        fill="#f0f0f0" stroke="#d0d0d0" stroke-width="1"/>
    </g>

    <!-- 머리(검정) + 귀 + 뿔 전체를 몸 기준으로 더 위로 올림 -->
    <g transform="translate(0,-1.55)">
      <!-- 머리 -->
      <ellipse cx="8" cy="3.6" rx="3" ry="2.4" fill="#111"/>
      <!-- 귀 -->
      <ellipse cx="4.8" cy="4.4" rx="1.5" ry="1.0" fill="#111"/>
      <ellipse cx="11.2" cy="4.4" rx="1.5" ry="1.0" fill="#111"/>
      <!-- 코끝 느낌의 밝은 점 (살짝 더 크게) -->
      <circle cx="8" cy="2.0" r="0.35" fill="#444"/>
      <!-- 뿔: 아래 털 쪽으로 조금 더 길게, 아래쪽 간격이 살짝 더 넓어지도록 -->
      <path d="M6.7 3.9 C6.0 4.7 6.0 5.7 6.5 6.0"
            stroke="#e0c090" stroke-width="1.4"
            stroke-linecap="round" fill="none"/>
      <path d="M9.3 3.9 C10.0 4.7 10.0 5.7 9.5 6.0"
            stroke="#e0c090" stroke-width="1.4"
            stroke-linecap="round" fill="none"/>
    </g>

  </g>
</svg>
